<?xml version="1.0" encoding="UTF-8"?>
<svg id="Livello_2" data-name="Livello 2" xmlns="http://www.w3.org/2000/svg" viewBox="0 0 1067.72 850.16">
  <defs>
    <style>
      .cls-1 {
        fill: #fff;
        stroke: #000;
        stroke-miterlimit: 10;
        stroke-width: 4px;
      }
    </style>
  </defs>
  <g id="Livello_1-2" data-name="Livello 1">
    <g>
      <path class="cls-1" d="M647.6,538.14c-1.15-18.96-1.17-37.91,1.17-56.84,1.63-13.19,3.13-26.4,4.69-39.59,.04-.35-.05-.79,.17-1.03,3.62-4.13,1.87-8.83,1.78-13.25-.34-17.94,.17-35.85,1.58-53.75,.84-10.7,1.02-21.43,1.83-32.13,.84-11.08,.76-22.13-.14-33.19-.28-3.41-.52-6.8-1.85-10.12-1.09-2.7-.59-5.6-.35-8.39,2.13-24.77,1.19-49.57,1.34-74.36,.12-20.34,1.75-40.58,5.54-60.67,.11-.6,.13-1.22,.13-1.83,0-.21-.18-.42-.41-.94-3.43,5.89-6.04,11.74-8.64,17.59-4.24,9.54-8.58,19.09-10.77,29.13-1.77,8.12-3.25,16.29-5.81,24.27-6.09,18.98-10.24,38.4-18.2,56.97-7.08,16.53-13.04,33.36-18.56,50.3-.91,2.81-2.15,5.47-3.85,8.03-3.48,5.23-4.81,11.09-5.76,16.88-2.82,17.26-7.64,34.15-12.05,51.14-3.45,13.3-5.52,26.84-5.24,40.54,.06,2.81-.03,5.64-.78,8.4-1.34,4.94,.54,10.01-.85,14.93-1.82,6.45,.11,12.76,.92,19.11,.65,5.08,1.22,10.15,1.15,15.26-.14,11.08-.27,22.16-.53,33.23-.1,4.07,.39,8.21-2.19,12.06-.91,1.36-1.01,3.25-.99,4.89,.13,13.3-1.48,26.51-2.68,39.74-1.28,14.13-1.03,28.3-.67,42.45,.33,13.02,.05,25.98-2,38.91-1.82,11.46-.96,23-.1,34.47,2.07,27.46,6.82,54.71,9.15,82.15,1.4,16.48,3.21,32.93,4.84,49.39,.14,1.4,.46,2.79,.55,4.19,.05,.72,.46,1.75-.79,2.02-1.08,.23-2.14-.18-2.6-1.08-1.09-2.17-2.38-4.32-3.05-6.6-3.53-12.02-6.26-24.17-8.45-36.4-3.31-18.44-4-37.09-5.78-55.65-1.76-18.38-2.96-36.81-6.48-55.04-.25-1.3,.45-1.94,1.45-2.65,4.03-2.85,4.29-5.22,.55-8.36-1.74-1.46-1.39-2.37,.11-3.68,2.82-2.46,2.84-4.46-.07-6.85-1.61-1.32-2.03-2.37-.84-4.09,1.19-1.72,.39-3.48-1.12-4.83-1.63-1.46-1.31-2.46,.38-3.7,3.77-2.78,3.83-4.82,.52-7.98-.85-.81-1.76-1.68-1.01-2.8,1.24-1.87-.08-3.23-1.2-4.55-1.03-1.2-2.33-2.25-3.59-3.3-3.14-2.6-5.63-2.79-8.45-.71-3.8,2.81-4.12,4.91-1.21,8.06,.18,.2,.27,.46,.4,.69-.78,.56-1.05-.13-1.53-.36-2.19-1.02-4.66-1.74-6.76-.32-2.26,1.54-4.59,3.14-3.95,6.31,.95,4.7,2.52,9.48-.31,14.17-.52,.86-.9,1.74-1.66,2.5-2.58,2.57-2.59,4.27,.24,6.61,1.93,1.59,2.81,2.65,.72,4.98-3.94,4.4-3.38,6.57,1.4,10.38,1.56,1.24,1.71,2.36-.13,3.44-2.77,1.63-3.23,3.61-1.68,6.14,3.18,5.2,3.23,10.94,3.73,16.58,.07,.81-.09,1.59-1.1,2-2.56,1.05-2.01,2.84-.91,4.2,1.45,1.78,1.72,3.19,.11,4.98-1.19,1.31-1.04,2.67,.53,3.98,2.26,1.88,1.95,2.98-.84,4.29-2.59,1.22-4.27,2.78-3.21,5.55,.56,1.46,.08,2.69-1.51,3.67-2.39,1.47-3.42,3.55-3.97,6.02-2.64,11.75-3.94,23.66-6,35.47-2.32,13.3-6.81,26.21-11.01,39.16-1.43,4.4-3.03,8.75-4.96,13.01-.27,.6-.24,1.59-1.29,1.61-1.02,.01-1.53-.81-2-1.5-.56-.82-.38-1.71-.29-2.58,1.06-10.15,2.35-20.29,3.16-30.45,1.32-16.49,2.5-33.01,2-49.54-.63-20.65,2.22-41.02,5.67-61.39,1.28-7.56,2.54-15.12,4.02-22.66,.12-.6,.37-1.32,.11-1.82-2.69-5.39-.28-10.76,.29-16.05,.88-8.08,.75-16.06,.16-24.16-1.07-14.43-6.35-28.05-9.97-41.99-2.3-8.88-2.67-18.01-2.03-27.04,.92-12.89-2.22-25.06-6.82-37.22-5.42-14.32-7.64-29.3-11.72-43.91-5.21-18.64-8.2-37.65-13.78-56.22-1.77-5.89-4.09-11.36-9.5-15.68-6.83-5.44-11.77-12.34-18.95-17.53-4-2.89-7.93-5.85-11.89-8.78l-.97,.14c0,3.9,.13,7.81-.02,11.7-.53,13.2,.53,26.36,.87,39.53,.29,11.46-.11,23-1.75,34.43-1.13,7.87-1.88,15.73-1.74,23.66,.11,6.68,.08,13.36,.19,20.05,.03,1.73-.53,3.03-2.31,4.02-2.46,1.37-3.43,3.11-1.91,5.59,.85,1.39,.72,2.76-1.1,3.92-2.94,1.86-3.16,5.36-.24,7.23,2.69,1.72,2.65,3.05,.23,4.71-2.58,1.77-2.61,3.75-.92,6.03,2.25,3.04,1.98,3.81-1.45,6.09-1.14,.76-2.26,1.57-3.19,2.51-2.08,2.07-2.08,3.99,.33,5.78,1.73,1.28,1.73,2.54,1.25,4.21-9.99,34.81-19.93,69.64-29.89,104.46-.12,.43-.27,.85-.4,1.28-.17,.59-.29,1.31-1.21,1.29-.75-.02-.83-.7-1.06-1.18-1.43-3.06-2.07-6.26-2.21-9.53-1.06-25-.06-49.94,3.9-74.73,3.36-20.99,6.44-41.99,8.14-63.12,1.5-18.67,0-37.25-2.32-55.81-2.58-20.72-5.46-41.43-5.65-62.29-.08-8.96,.44-17.93,.85-26.89,.73-15.82,.94-31.62-.39-47.44-1.62-19.21-1.13-38.5-2.2-57.73-1.48-26.63,.06-53.28-.96-79.92-.18-4.85,1.93-9.5,2.61-14.29,.93-6.54,1.75-13.07,2.29-19.66,1.72-20.81-2.51-40.92-9.14-60.83-2.46-7.37-3.63-14.92-4.14-22.59-.38-5.68-1.74-11.32-2.62-16.98-.18-1.16-1.29-2.8,.06-3.37,1.34-.56,2.38,1.13,3.29,1.98,11.87,11.01,23.05,22.46,33.21,34.66,13.28,15.94,23.55,33.33,35.27,50.03,2.07,2.95,4.15,5.89,6.22,8.84,1.73,2.46,3.89,4.55,6.97,5.89,1.33,.58,2.55,1.32,3.22,2.43,7.73,12.8,17.19,25.16,20.26,39.45,3.98,18.53,9.93,36.63,14.9,54.94,4.34,16.02,11.95,31.21,17.62,46.9,9.15,25.3,16.83,50.92,24.16,76.63,2.62,9.2,5.23,18.41,6.97,27.8,1.65-.22,1.38-1.38,1.52-2.09,3.68-18.56,9.67-36.67,14.98-54.91,7.85-26.92,17.54-53.37,28.2-79.58,5.31-13.05,7.85-26.72,12.33-39.96,3.84-11.34,5.76-23,8.65-34.49,1.91-7.6,5.71-14.17,12.06-19.83,16.12-14.37,29.31-30.62,41.87-47.22,12.53-16.56,28.27-30.57,46.14-43.05,8.11-5.67,15.9-11.67,23.85-17.51,.77-.57,1.57-1.54,2.57-1.23,1.23,.37,.45,1.54,.51,2.34,.45,6.39-2.59,12.22-4.22,18.27-2.3,8.6-6.5,16.64-10.12,24.87-5.56,12.65-8.24,25.91-10.9,39.17-5.83,29.11-5.97,58.46-5.62,87.84,.06,4.88,0,9.75,0,15.09,2.33-1.76,3.01-3.92,4.21-5.77,10.01-15.38,19.96-30.8,29.93-46.2,.5-.77,1.05-1.52,1.44-2.33,.8-1.67,2.15-2.26,4.22-1.77,6.26,1.45,9.98-3.05,8.25-7.29-.69-1.7-.68-2.79,2.15-2.06,1.57,.41,3.29,.49,4.96,.57,3.85,.17,6.49-2.06,6.27-5.27-.11-1.64-.07-2.79,2.6-2.9,3.71-.14,5.32-2.07,4.96-5.26-.18-1.63,.35-2.52,2.59-2.29,2.97,.3,5.37-.31,6.2-3.15,.43-1.47,1.83-1.37,3.28-1.24,6.06,.52,9.18-2.23,8.19-7.15-.43-2.14-1.93-3.43-4.49-3.77-1.44-.19-2.89-.28-4.34-.41-1.53-.13-1.61-.73-.53-1.44,2.22-1.46,4.46-2.9,6.78-4.23,9.93-5.71,21.06-9.27,32.31-12.54,3.82-1.11,7.61-.54,10.62,2.19,6.9,6.26,14.09,12.29,22.51,17.1,6.61,3.77,10.46,9.5,15.33,14.5,9.56,9.82,21.04,17.51,34.98,22.45,3.94,1.4,8.1,2.36,12.5,1.46,1.87-.38,2.91,.59,3.8,1.77,.41,.54,.94,1.02,1.76,.85,.25-.05,.45-.52,.54-.82,2.42-7.99,3.89-16.12,4.88-24.31,1.1-9.13,.3-18.27,.17-27.41-.05-3.18-1.36-5.04-4.26-6.89-9.52-6.06-17.61-13.48-26.33-20.3-15.69-12.27-32.82-22.77-51.72-31.32-23.27-10.52-45.69-22.24-67.8-34.4-6-3.3-12.57-5.88-18.93-8.72-3.68-1.65-7.4-3.12-9.49-6.5-1.09-1.76-2.97-2.48-5.21-1.05-.76,.49-1.41,.28-2.28,.04-4.91-1.36-9.28-3.64-13.62-5.86-11.08-5.67-23.27-8.99-35.46-12.34-4.56-1.25-9.13-2.47-13.64-3.83-5.28-1.59-9.03-4.62-11.21-8.99-.39-.79-1.36-1.71-.71-2.42,.8-.87,2.15-.13,3.16,.06,12.82,2.4,25.67,4.75,38.43,7.37,11.03,2.27,22.35,3.6,33.05,6.95,16.02,5.02,32,10.13,48.28,14.56,21.15,5.75,42.46,11.05,63.77,16.33,9.75,2.41,18.14,7.08,26.78,11.28,20.84,10.13,38.94,23.25,56.31,37.16,9.83,7.87,19.19,16.16,29.75,23.38,3.85,2.64,6.68,5.95,8.89,9.73,5.99,10.27,13.06,20.01,21.29,29.12,10.34,11.45,18.66,23.78,25.51,37,9.15,17.66,21.03,34.11,34.87,49.51,.19,.21,.31,.48,.55,.64,2.67,1.79,1.98,2.58-.96,3.64-5.21,1.87-5.63,6.97-1.01,9.68,2.65,1.55,5.48,2.89,8.15,4.42,2.5,1.43,4.29,6.58,3.08,8.9-12.91,24.66-19.23,50.78-24.05,77.21-3.45,18.95-5.29,38.04-7.01,57.16-2.56,28.49-4.16,57.04-7.61,85.46-3.22,26.5-6.66,52.97-8.92,79.54-.69,8.15-1.6,16.3-2.08,24.46-.58,9.91-2.84,19.43-7.15,28.72-4.59,9.88-6.66,20.26-7.29,30.88-.38,6.32-.24,12.61-.18,18.92,.08,8.14-1.17,16.29-2.04,24.43-1.38,12.88-1.84,25.79-2.33,38.7-.09,2.46-.37,4.91-.67,7.36-.23,1.86-1.35,1.93-2.94,.88-1.13-.74-1.69-1.77-2.2-2.82-1.48-2.99-2.84-6.03-4.41-8.99-.52-.98-.43-1.65,.44-2.34,2.38-1.9,2.65-4.49,3.16-6.99,.24-1.22-.31-2.37-1.15-3.19-2.12-2.08-4.69-3.81-7.98-4.3-2.21-.32-3.41-1.24-4.42-2.87-7.44-11.99-15.44-23.68-25.61-34.24-5.57-5.79-12.29-10.51-18.83-15.43-4.68-3.52-9.2-7.11-12.6-11.65-1.94-2.6-5.47-3.68-8.64-5-.51-.21-1.1-.3-1.48,0-2.35,1.86-4.07,.46-5.92-.69-1.09-.67-2.27-1.24-3.48-1.76-19.26-8.27-37.33-18.23-55.45-28.07-9.75-5.3-11.73-11.66-7.57-20.73,2.55-5.56,2.93-11.49,3.94-17.28,2.89-16.6,7.2-32.99,9.96-49.61,1.27-7.65,3.17-15.23,3.66-22.97,.11-1.78,.79-3.11,2.81-4.03,2.99-1.35,4.05-3.65,3.65-6.45-.07-.52-.25-1.08-.11-1.56,3.28-11.12,.77-22.01-2-32.86-.49-1.92-.03-3.11,1.71-4.33,3.05-2.14,3.49-4.27,.98-6.84-2.25-2.3-2.99-5.17-4.87-7.58-.88-1.13-1.01-2,1.27-1.56,1.86,.35,3.36-.27,4.71-1.49,1.84-1.66,3.65-3.35,5.98-4.62,3.62-1.97,3.83-4.96,2.38-7.91-1.09-2.22-1.12-3.94,.86-5.73,1.18-1.07,1.39-2.7,.45-3.7-3.36-3.56-4.42-8.38-8.84-11.31-.95-.63-1.71-1.58-3.14-1.58-2.82,0-4.15-1.56-5.34-3.45-2.35-3.72-5.1-7.24-8.22-10.55-.58-.62-1.14-1.34-1.9-1.73-8.65-4.42-13.08-12.24-20.38-17.78-5.91-4.49-11.05-9.69-16.45-15.26,0,3.66-.07,6.78,.01,9.9,.56,22.94,.97,45.89,.23,68.84-.04,1.31-.03,2.67-1.09,3.76-2.97,3.03-3.44,6.65-3.78,10.38-1.39,15.39-.12,30.75,.32,46.12,.24,8.35,.24,16.71,.98,25.04,.25,2.79-.76,5.41-1.79,7.98-3.36,8.41-4.72,17.1-4.96,25.91-.14,5.01-1.18,9.98-.67,15,.12,1.15-.14,2.31-.85,3.31-8.73,12.29-12.12,26.06-15.67,39.8-1.6,6.19-2.45,12.48-3.88,18.69-2.05,8.92-6.3,17.28-9.37,25.93-1.76,4.96-3.48,9.94-5.29,14.89-.38,1.04-.43,2.26-1.85,3.25-1.3-3.5-1.36-6.99-2-10.39-2.99-15.76-3.17-31.67-3.88-47.56-.48-10.87-1.99-21.71-2.97-32.57-.28-3.15-.4-6.32-.4-9.48,0-8.51-2.28-16.72-4.41-24.96-.31-1.19-.52-2.44-.46-3.65,.77-13.41-.6-26.7-3.16-39.92-1.73-8.94-1.62-18.06-3.58-26.98-1.46-6.62-1.37-13.3-1.6-19.96-.76-22.23-1.26-44.47-1.92-66.71-.2-6.87,2.11-13.39,3.74-19.99,2.45-9.92,3.95-19.94,4.65-30.03,.81-11.61,3.7-23,4.84-34.55,1.06-10.77,3.81-21.16,7.71-31.38,2.46-6.43,6.84-12,11.85-17.22,.85-.89,1.78-1.72,2.64-2.61,5.02-5.22,3.17-11.5-4.23-14.15-4.1-1.47-7.54-.25-10.53,2.19-1.41,1.15-2.69,2.17-4.92,2.34-2.53,.2-4.17,1.82-5.2,3.76-.98,1.84-1.92,3.7-2.82,5.57-1.33,2.74-2.2,5.61-6.04,6.97-1.75,.61-2.81,2.42-3.39,3.99-4.33,11.79-12.66,21.9-19.38,32.68-4.06,6.53-8.02,13.12-11.01,20.07-.58,1.34-1.69,2.17-3.1,2.82-2.37,1.1-3.44,2.84-4.05,5.03-2.71,9.86-4.45,19.84-5.91,29.88-1.53,10.58-4.43,20.93-9.95,30.62-2.53,4.43-3.57,9.15-4.36,13.94-1.94,11.87-6.36,23.26-9.47,34.9-3.83,14.3-9.41,28.27-11.45,42.89-2.48,17.8-4.63,35.64-6.94,53.46-.15,1.19-.09,2.43-1.09,3.55ZM969.43,180.47c-.32,.74-.49,.96-.5,1.19-.79,18.03-3.62,35.88-7.15,53.65-4.59,23.13-9.46,46.22-14.17,69.33-3.44,16.88-6.65,33.81-11.89,50.36-4.27,13.5-8.74,26.94-11.49,40.72-1.87,9.4-4.6,18.52-8.82,27.37-3.42,7.17-5.82,14.63-7.88,22.17-4.64,16.98-6.03,34.39-9.95,51.47-1.66,7.23-2.04,14.66-3.43,21.94-4.32,22.63-8.84,45.23-13.29,67.84-.97,4.91-1,4.9,4.11,7.21,.92,.42,1.83,.84,2.72,1.3,9.69,4.99,18.94,10.77,29.15,14.82,16.97,6.74,29.99,16.99,41.26,29.2,3.37,3.65,6.74,7.3,10.07,10.9,.84-.34,.78-.8,.82-1.23,2.24-24.27,4.58-48.54,6.69-72.82,2.32-26.65,5.82-53.2,9-79.78,3.41-28.51,5.08-57.14,7.6-85.71,2.18-24.64,4.99-49.2,10.13-73.53,4.24-20.06,10.3-39.73,18.02-59.05,2.57-6.42,6.68-12.26,9.52-18.57,.96-2.13,1.11-4.12,.19-6.35-2.9-7.09-6.77-13.77-11.69-20-10.4-13.17-21.68-25.8-33.63-38-4.81-4.91-10.09-9.48-15.41-14.45Zm-164.04,120.97c-1.48,3.88,.97,6.43,6.4,7.38,.69,.12,1.37,.44,1.98,.77,3.74,2.04,8.31,3.51,10.24,7.09,3.57,6.6,9.52,10.69,17.35,13.18,1.5,.48,2.88,1.04,3.25,2.56,2.01,8.19,7.78,14.88,12.45,22.01,.96,1.47,2.32,2.74,3.98,3.67,2.56,1.44,4.43,3.42,6.54,5.24,4.39,3.77,7.54,8.43,12.25,11.96,1.45,1.08,2.5,2.46,2.19,4.17-.71,4,2.18,6.34,5.35,8.62,2.31,1.66,4.82,2.55,7.71,1.27,3.41-1.51,4.58-3.73,4.05-7-.21-1.3-.5-2.62-.46-3.93,.31-10.46-2.15-20.79-1.93-31.26,.19-9.3-2.16-18.67,2.13-27.81,2-4.27,1.08-9.08,2.13-13.51,2.86-12.04,5.31-24.17,9.12-36.03,.89-2.77,.47-4.79-2.04-6.79-2.35-1.88-3.9-4.33-5.32-6.78-3.45-5.99-7.11-11.92-9.15-18.41-.8-2.54-2.33-4.24-5.39-5.26-2.98-.99-5.86-2.37-8.49-3.92-6.12-3.62-11.6-7.76-13.9-14.1-.57-1.56-1-3.24-2.65-4.39-6.62-4.61-13.57-8.76-21.52-11.63-.95-.34-1.78-.52-2.51,.26-4.1,4.41-8.97,8.38-11.33,13.79-3.41,7.84-6.07,15.88-8.64,23.92-4.01,12.54-6.86,25.36-12.59,37.48-1.73,3.67-2.4,7.43-2.17,11.34,.3,5.09,.62,10.18,.98,16.12ZM413.63,152.12c2.03,10.22,3.27,20.43,4.22,30.68,.96,10.35,1.78,20.7,1.66,31.07-.47,40.44,1.22,80.84,2.52,121.26,.09,2.7,.71,4.26,4.17,5.03,6.13,1.36,10.94,5.01,16.5,7.37,15.31,6.5,29.78,14.13,43.72,22.51,.52,.31,.93,1.03,2.02,.5-.79-2.57-1.63-5.17-2.4-7.79-7.04-24.1-14.32-48.14-23.8-71.67-5.02-12.45-10.42-24.81-13.85-37.64-5.08-18.98-11.55-37.68-15.4-56.93-2.35-11.74-8.16-22.78-13.31-33.88-1.69-3.63-3.34-7.29-6.06-10.51Z"/>
      <path class="cls-1" d="M70.74,736.32c.33-5.7,.04-10.67-.55-15.6-3.04-25.41-1.86-50.96-3.87-76.39-1.43-18.15-3.48-36.27-5.19-54.41-1.41-14.9-2.51-29.81-4.13-44.69-2.43-22.31-5.33-44.59-7.75-66.91-1.46-13.48-2.32-27-3.56-40.49-2.46-26.72-4.09-53.5-8.19-80.11-3.78-24.52-10.01-48.57-18.95-72.12-3.31-8.72-8.69-16.68-13.21-24.95-.39-.72-.81-1.43-1.28-2.1-3.04-4.34-2.74-8.15,.76-12.58,16.96-21.4,33.6-42.98,51.52-63.81,10.15-11.8,20.24-23.76,31.83-34.52,7.73-7.18,15.13-14.74,24.39-20.92,15.78-10.53,30.64-22.04,45.89-33.13,2.92-2.12,5.87-4.22,8.79-6.34,.83-.6,1.49-1.06,2.7-.34,3.64,2.18,6.44,2.12,10-.43,5.33-3.81,10.4-7.89,15.77-11.66,11.53-8.11,22.93-16.38,36.02-22.76,1.7-.83,3.06-1.2,4.83-.25,2.4,1.28,4.96,.95,7.06-.39,4.4-2.81,8.75-5.7,12.84-8.81,1.97-1.5,3.97-2.77,6.33-3.75,16.58-6.88,33.68-12.77,50.78-18.68,.66-.23,1.55-.54,2.09-.35,4.37,1.58,7.12-.64,9.91-2.83,.38-.3,.73-.63,1.12-.92,2.17-1.58,3-1.4,3.97,.85,1.36,3.14,3.59,4.7,6.39,4.46,3.71-.32,6.77-2.68,7.07-5.74,.14-1.4-1.47-2.64-.92-4.35,1.22,.62,.94,1.66,1,2.48,.18,2.64,1.49,4.67,4.39,5.77,2.3,.88,6.72,0,8.5-1.5,1.02-.86,.92-1.87,.73-2.94-.23-1.33,.18-1.99,2.14-2.05,5.83-.18,7.3-1.7,6.99-6.76-.09-1.44,.78-2.09,2.34-2.31,1.49-.21,2.74,0,3.21,1.4,.22,.67,.26,1.4,.52,2.06,.85,2.16,2.1,4.07,5.03,4.6,2.9,.52,5.35-.25,7.35-2.07,.42-.39,.71-.89,1.18-1.23,3.92-2.8,3.64-3.99,8.06-.67,2.57,1.93,5.72,1.42,8.84-1.18,1.71-1.42,3.27-2.97,5.25-4.13,.73-.43,1.58-1.1,2.54-.55,1.05,.61,.37,1.51,.08,2.16-2.17,4.91-6.25,8.19-12.18,9.84-6.44,1.78-12.85,3.68-19.34,5.33-12.58,3.21-24.06,8.36-35.54,13.62-16.22,7.43-33.24,13.63-48.79,22.06-13.69,7.42-27.19,15.07-41.5,21.67-10.62,4.9-21.15,9.93-31.59,15.09-17.41,8.6-32.66,19.53-47.09,31.3-8.18,6.67-16.65,13.03-25.67,18.91-10.95,7.14-20.3,15.79-28.83,24.87-8.69,9.26-18.15,17.9-27.21,26.86-13.05,12.92-24.94,26.61-36.05,40.74-4.67,5.94-8.12,12.45-10.83,19.23-.66,1.66-.36,3.14,.38,4.6,2.79,5.48,6.02,10.83,8.45,16.42,7.38,16.93,12.7,34.35,17,52,5.94,24.4,9.17,49.1,11.52,73.91,3.05,32.25,4.85,64.57,8.67,96.77,2.93,24.66,6.44,49.28,8.35,74.02,1.96,25.35,5.26,50.62,6.94,75.99,.05,.74-.26,1.8,.76,2.1,1.08,.31,1.53-.73,2.05-1.32,6.87-7.87,14.07-15.49,22.19-22.49,6.41-5.53,13.6-10.15,21.9-13.44,8.44-3.35,15.97-7.96,23.94-11.96,5.02-2.52,9.93-5.21,15.19-7.33,2.44-.98,3.14-2.17,2.74-4.29-2.15-11.27-3.96-22.57-6.59-33.78-2.7-11.53-4.65-23.19-6.97-34.79-.25-1.24,.63-1.79,1.66-2.23,3.11-1.33,4.9-3.16,3.75-6.3-.37-1.01,.23-1.91,1.06-2.63,2.33-2.01,1.57-4.03-.09-5.92-2.07-2.35-4.65-4.25-8.07-5.45,2.6-1.34,4.73-2.99,6.79-4.69,4.16-3.42,4.08-6.25-.28-9.53-.91-.69-1.93-1.24-2.68-2.58,3.42,.59,6.28,.66,8.54-1.65,2.04-2.08,2.33-4.52,.51-6.72-3.42-4.14-9.01-5.5-13.89-7.74-1.21-.56-2.4,.31-3.44,.88-5.85,3.19-10.63,7.41-15.19,11.73-9.09,8.6-17.87,17.42-26.78,26.16-1.13,1.11-2.14,2.33-4.15,3.46,.45-2.39,.77-4.32,1.19-6.23,2.7-12.23,4.03-24.68,8.77-36.56,.86-2.16,1.64-4.34,2.42-6.52,.97-2.71,1.98-5.31,5.34-6.77,1.49-.65,1.97-2.21,2.74-3.45,5.08-8.22,11.97-15.41,18.39-22.85,16.53-19.15,30.79-39.41,42.83-60.79,4.53-8.04,11.03-15.07,16.19-22.78,.51-.76,1-1.54,1.48-2.32,1.27-2.05,2.61-3.57,6.04-2.99,3.36,.56,4.16,2.26,4.28,4.62,.63,11.64-.37,23.17-3.15,34.6-1.34,5.51-2.88,10.99-3.41,16.61-.19,2-1.13,3.73-2.51,5.31-3.03,3.48-5.83,7.04-7.23,11.28-.42,1.26-1.46,2.28-2.66,3.2-5.22,4-8.14,8.59-6.79,14.92,3.43,16.13,2.69,32.56,4.37,48.83,1.33,12.87,1.85,25.84,4.1,38.59,3.13,17.71,6.44,35.42,10.67,52.99,1.78,7.4,2.82,14.92,4.13,22.39,.5,2.87,1.08,5.72,2.48,8.4,1.6,3.05,1.63,6.29,1.82,9.54,.1,1.83-.41,2.33-2.65,1.8-5.1-1.22-5.88-.9-8.9,2.63-1.35,1.58-1.77,3.18-.07,4.78,1.28,1.2,.95,1.91-.59,2.89-7.96,5.07-17,8.5-25.73,12.42-14.83,6.66-28.97,14.27-42.54,22.65-16.21,10.01-31.35,21.05-45.33,33.2-6.68,5.81-12.68,12.15-19.19,18.07-3.45,3.14-6.46,6.36-8.91,10.04-.98,1.48-2.68,2.07-4.63,2.39-4.09,.67-5.41,2.13-4.82,5.48,.3,1.7-.06,3.08-1.31,4.41-2.35,2.5-3.87,5.51-7.1,8.46Z"/>
      <path class="cls-1" d="M294.56,686.66c-2.38-1.31-2.51-3.24-2.85-4.95-3.13-15.58-5.79-31.22-10.01-46.63-.21-.75-.61-1.64,.07-2.29,2.06-1.99,.88-3.53-.81-5.05-2.1-1.89-2.08-4.38-2.44-6.68-1.71-10.9-2.29-21.86-2.66-32.85-.58-17.64-1.29-35.29-4.72-52.77-.44-2.23-.39-4.57-.24-6.84,1.39-20.49,.1-40.95-.7-61.42-1.31-33.4-1.89-66.79-.92-100.21,.69-23.82,1.58-47.63,2.97-71.43,.11-1.93,.24-3.86,.47-5.79,.89-7.14-.11-13.99-3.94-20.49-.54-.91-.87-2.03-.85-3.04,.16-5.92-1.01-11.74-1.85-17.58-.68-4.72-1-9.46-.62-14.21,1.1-13.66-6.22-23.94-18.56-31.93-11.41-7.39-24.51-10.78-39-11.18-15.97-.44-31.45,1.51-46.75,5.03-.6,.14-1.21,.27-1.82,.37-.19,.03-.4-.05-1.13-.16,2.36-2.2,4.44-4.31,6.73-6.24,17.2-14.5,33.79-29.47,49.77-44.91,1.08-1.04,1.96-1.59,3.68-.77,2.11,1,4.61,1.16,6.97,1.35,4.14,.33,8.17-3.2,7.8-6.91-.18-1.76,.49-2.93,2.04-3.79,1.86-1.03,2.67-2.31,2.38-4.21-.2-1.3,.24-2.26,2.33-1.73,4.34,1.12,8.91,.73,13.35,1.28,2.08,.25,3.37-.68,4.31-2.06,.85-1.24,1.67-1.16,2.98-.36,5.74,3.52,9.62,8.13,11.84,13.77,.52,1.32,1.43,2.45,2.95,2.91,1.84,.56,3.03,1.21,2.19,3.04-.07,.15-.13,.41-.04,.51,2.79,3.05,2.41,7.35,5.63,10.22,.72,.64,1.51,1.17,1.5,2.19-.12,8.62,3.9,16.18,8.53,23.6,3.84,6.14,7.65,12.29,11.31,18.51,4.12,7,4.4,14.77,5.92,22.28,3.54,17.37,5.08,34.88,5.23,52.5,.04,5.39,2.35,10.51,3.61,15.76,3.75,15.72,5.47,31.63,6.91,47.59,1.79,19.81,.19,39.54-1.57,59.27-1.95,21.92-3.71,43.84-4.72,65.81-.14,2.99-1.48,5.62-2.61,8.34-4.58,10.97-7.69,22.24-10.07,33.67-1.89,9.09-5.02,17.94-7.59,26.91-2.47,8.6-2.56,17.41-3.61,26.14-.14,1.15,.05,2.27,.62,3.35,.86,1.61,.96,3.14-.34,4.72-1.28,1.56-.62,3.29,.27,4.77,2.34,3.86,2.56,8.09,3.39,12.23,.3,1.51-.16,2.75-1.39,3.85-1.31,1.17-2.06,2.62-2.72,4.11-.5,1.12-.68,2.33,.17,3.29,4.4,4.97,2,10.07,.49,15.14-.16,.54-.43,.98,.09,1.43,2.22,1.93,1.32,4.27,1.21,6.5-.68,13-3.97,25.78-4.52,38.8-.37,8.63-.14,17.22,1.35,25.77,.07,.39,0,.8,0,1.5Z"/>
    </g>
  </g>
</svg>