<svg xmlns="http://www.w3.org/2000/svg" id="Livello_2" data-name="Livello 2" viewBox="0 0 1068 850">
  <defs>
    <style>
      .cls-1{fill:#fff;stroke:#000;stroke-miterlimit:10;stroke-width:4px}
    </style>
  </defs>
  <g id="Livello_1-2" data-name="Livello 1">
    <path id="g" d="m71 736-1-15c-3-26-2-51-4-77l-5-54-4-45-8-67-3-40c-3-27-4-54-9-80-3-25-10-49-18-72L5 261l-1-2c-3-5-3-9 1-13l51-64c10-12 21-24 32-34 8-8 15-15 25-21l45-33 9-7h3c4 2 6 2 10-1l16-11c11-8 23-17 36-23h5c2 1 5 1 7-1a191 191 0 0 0 19-12l51-19h2c4 1 7-1 10-3l1-1c2-2 3-1 4 1 1 3 3 5 6 4 4 0 7-2 7-5l-1-5 1 3c0 2 2 4 5 6 2 0 6 0 8-2l1-3c0-1 0-2 2-2 6 0 7-2 7-7l2-2 3 1 1 2c1 3 2 5 5 5 3 1 5 0 7-2l2-1c3-3 3-4 8-1 2 2 5 1 8-1l6-4 2-1v2c-2 5-6 9-12 10l-19 6c-13 3-24 8-36 13l-49 22-41 22-32 15c-17 9-32 20-47 31l-25 19c-11 7-21 16-29 25l-27 27c-13 13-25 27-36 41-5 6-9 12-11 19v4l9 17a517 517 0 0 1 29 126c2 32 4 64 8 97l8 74 7 76 1 2 2-2 22-22c6-6 14-10 22-14l24-12 15-7c3-1 3-2 3-4l-7-34-7-35 2-2c3-1 5-3 4-6-1-1 0-2 1-3 2-2 1-4 0-6l-8-5 6-5c5-3 4-6 0-9l-3-3c4 1 7 1 9-2 2-2 2-4 0-6-3-5-9-6-13-8-2-1-3 0-4 1-6 3-11 7-15 11l-27 27-4 3 1-6c3-12 4-25 9-37l2-6c1-3 2-6 6-7l2-3a421 421 0 0 0 62-84c4-8 11-15 16-23l1-2c2-2 3-4 6-3 4 0 5 2 5 4 0 12-1 24-3 35l-4 17-2 5-8 11c0 2-1 3-2 3-6 4-8 9-7 15 3 17 3 33 4 49l4 39 11 53 4 22 3 9 1 9c1 2 0 2-2 2-5-1-6-1-9 3-1 1-2 3 0 4 1 2 1 2-1 3l-25 13a367 367 0 0 0-88 55l-20 19-8 10-5 2c-4 1-5 2-5 5l-1 5-7 8Z" class="cls-1"/>
    <path id="i" d="M295 687c-3-2-3-4-3-5l-10-47v-2c2-2 1-4-1-5-2-2-2-5-2-7l-3-33a328 328 0 0 0-5-59c1-21 0-41-1-62a1469 1469 0 0 1 3-177c1-7 0-14-4-21l-1-3-2-17-1-15c2-13-6-24-18-32-12-7-25-10-39-11a185 185 0 0 0-49 6h-1l7-7a989 989 0 0 0 53-45l7 1c4 0 9-3 8-7l2-4c2-1 3-2 3-4-1-1 0-2 2-2l13 2 5-2c0-2 1-2 3-1 5 4 9 8 11 14l3 3c2 0 3 1 3 3h-1c3 3 3 8 6 11l2 2c-1 8 4 16 8 23l11 19c5 7 5 15 6 22 4 18 5 35 6 53l3 15a333 333 0 0 1 6 107l-5 66-3 9-10 33-7 27c-3 9-3 17-4 26l1 4c0 1 1 3-1 4v5c3 4 3 8 4 12 0 2 0 3-2 4l-2 4v4c4 5 2 10 0 15l1 1c2 2 1 4 1 7l-5 38c0 9 0 18 2 26v2Z" class="cls-1"/>
    <path id="ampo" d="M648 538c-2-19-2-38 1-57l4-39 1-1c3-4 1-9 1-14l2-53 2-32v-34l-2-10-1-8c3-25 2-50 2-75a337 337 0 0 1 5-62v-1l-9 18c-4 9-8 19-10 29l-6 24c-6 19-10 38-18 57a597 597 0 0 0-23 58c-3 6-5 11-6 17-2 17-7 34-12 51-3 14-5 27-5 41l-1 8v15c-2 7 0 13 0 19l2 16-1 33c0 4 1 8-2 12l-1 5-3 40v42c0 13 0 26-2 39-2 11-1 23-1 34l10 82 4 50 1 4-1 2-2-1c-1-2-3-4-3-7l-9-36c-3-18-4-37-6-56l-6-55 1-2c4-3 5-6 1-9-2-1-2-2 0-3 3-3 3-5 0-7-2-2-2-3-1-4 1-2 0-4-1-5-2-2-1-3 0-4 4-3 4-5 1-8-1-1-2-1-1-3 1-1 0-3-1-4l-4-3c-3-3-6-3-8-1-4 3-5 5-2 8l1 1-2-1c-2-1-4-2-7 0-2 1-4 3-3 6 0 5 2 10-1 14l-1 3c-3 2-3 4 0 6 2 2 3 3 1 5-4 5-4 7 1 11 1 1 2 2 0 3-3 2-3 4-2 6 3 6 3 11 4 17l-1 2c-3 1-2 3-1 4 1 2 2 3 0 5v4c3 2 2 3 0 4-3 2-5 3-4 6 1 1 1 3-1 4s-3 3-4 6c-3 11-4 23-6 35-2 13-7 26-11 39l-5 13-1 2-2-2-1-2 4-31 2-49c-1-21 2-41 5-62l4-22v-2c-2-5 0-11 1-16v-24c-1-15-7-28-10-42-2-9-3-18-2-27 1-13-2-25-7-37l-12-44c-5-19-8-38-14-57-1-5-4-11-9-15-7-6-12-13-19-18l-12-9-1 1v11l1 40c0 11 0 23-2 34-1 8-2 16-1 24v20c0 2-1 3-3 4s-3 3-1 6c0 1 0 2-2 3-3 2-3 6 0 8 3 1 3 3 0 4-2 2-2 4-1 6 3 3 2 4-1 7l-3 2c-2 2-2 4 0 6 2 1 2 2 1 4l-29 104-1 2-1 1-1-1c-2-3-2-6-2-10-1-25 0-50 4-74l8-64c1-18 0-37-3-55-2-21-5-42-5-63l1-26c0-16 1-32-1-48l-2-58-1-80 3-14 2-20c2-20-3-40-9-60-3-8-4-15-4-23l-3-17v-3c1-1 2 1 3 2l34 34c13 16 23 34 35 50l6 9c2 3 4 5 7 6 1 1 3 1 3 3 8 12 17 25 21 39l14 55c5 16 12 31 18 47a1158 1158 0 0 1 31 104c2 0 2-1 2-2a824 824 0 0 1 43-134c5-13 8-27 12-40l9-35c2-7 6-14 12-20 16-14 29-30 42-47 12-16 28-30 46-43l24-17 2-2c2 1 1 2 1 3 0 6-3 12-4 18l-10 25c-6 13-9 26-11 39-6 29-6 58-6 88v15l4-6 30-46 2-2c0-2 2-3 4-2 6 1 10-3 8-7-1-2-1-3 2-2h5c4 0 7-2 6-5 0-2 0-3 3-3 4 0 5-2 5-5 0-2 0-3 3-3 3 1 5 0 6-3l3-1c6 1 9-2 8-7 0-2-2-4-4-4h-5v-2l7-4c10-6 21-9 32-13 4-1 8 0 11 3l22 17c7 4 11 9 15 14 10 10 21 18 35 23 4 1 9 2 13 1l4 2 1 1 1-1 5-24v-28c0-3-1-5-4-7-10-6-18-13-27-20-15-12-32-23-51-31-24-11-46-23-68-35l-19-8c-4-2-7-4-9-7-2-2-3-2-6-1h-2c-5-1-9-4-14-6-11-5-23-9-35-12l-14-4c-5-2-9-5-11-9l-1-2h4l38 7 33 7 48 15 64 16c10 2 18 7 27 11 21 10 39 23 56 37 10 8 19 17 30 24 4 2 7 6 9 9 6 11 13 20 21 30 10 11 19 23 26 37 9 17 21 34 34 49l1 1c3 2 2 2-1 3-5 2-6 7-1 10l8 4c3 2 5 7 3 9-13 25-19 51-24 78l-7 57-7 85c-4 27-7 53-9 80l-2 24c-1 10-3 20-8 29-4 10-6 20-7 31v19l-2 24-2 39-1 7c0 2-1 2-3 1l-2-3-5-9 1-2c2-2 3-5 3-7l-1-3-8-5-5-2c-7-12-15-24-25-35l-19-15-13-12c-1-2-5-3-8-5h-2c-2 2-4 1-6 0l-3-2c-19-8-37-18-56-28-9-6-11-12-7-21l4-17 10-50c1-8 3-15 3-23l3-4c3-1 4-4 4-6v-2c3-11 1-22-2-33-1-2 0-3 2-4 3-2 3-4 1-7-3-2-3-5-5-7-1-2-1-2 1-2s3 0 5-2l6-4c3-2 3-5 2-8-1-2-1-4 1-6v-3c-3-4-4-9-9-12l-3-1c-3 0-4-2-5-4l-8-10-2-2c-9-5-13-12-21-18l-16-15v79l-1 3c-3 3-3 7-4 11-1 15 0 30 1 46l1 25-2 8c-3 8-5 17-5 26l-1 15-1 3c-8 12-12 26-15 40l-4 19c-2 9-6 17-10 26l-5 14c0 1 0 3-2 4l-2-11c-3-15-3-31-4-47l-2-33-1-9c0-9-2-17-4-25l-1-4c1-13 0-27-3-40l-4-27-1-20-2-67c0-6 2-13 4-20 2-9 4-19 4-30l5-34c1-11 4-21 8-31 2-7 7-12 12-18l2-2c5-6 4-12-4-14-4-2-7-1-10 2l-5 2c-3 0-4 2-5 4l-3 5c-2 3-2 6-6 7l-4 4c-4 12-12 22-19 33l-11 20-3 3c-3 1-4 3-4 5l-6 30c-2 10-5 21-10 30-3 5-4 10-4 14-2 12-7 24-10 35-4 15-9 29-11 43l-7 54-1 3Zm321-358v2c-1 18-4 36-7 53l-14 70-12 50c-5 14-9 27-12 41-2 9-4 18-9 27l-7 22c-5 17-7 35-10 52l-4 22-13 68c-1 4-1 4 4 7l3 1c9 5 19 11 29 15 17 7 30 17 41 29l10 11 1-1 7-73c2-27 6-53 9-80l7-86c2-24 5-49 10-73 5-20 11-40 18-59l10-19v-6a390 390 0 0 0-45-58l-16-15ZM805 301c-1 4 1 7 7 8l2 1c4 2 8 3 10 7 4 6 10 10 17 13l4 2c2 9 7 15 12 22l4 4 7 5c4 4 7 9 12 12l2 4c-1 4 2 7 5 9s5 3 8 1c3-1 5-3 4-7v-4l-2-31c0-9-2-18 2-28 2-4 1-9 2-13l9-36c1-3 1-5-2-7l-5-7-9-18c-1-3-3-4-6-5l-8-4c-6-4-12-8-14-14-1-2-1-4-3-5-6-4-13-9-21-11h-3c-4 4-9 8-11 14-4 7-6 15-9 24-4 12-7 25-12 37-2 4-3 7-3 11l1 16ZM414 152a298 298 0 0 1 6 62c-1 40 1 81 2 121 0 3 1 4 4 5l17 8c15 6 29 14 43 22l2 1-2-8c-7-24-14-48-24-72l-14-38c-5-19-11-37-15-56-2-12-8-23-13-34l-6-11Z" class="cls-1"/>
  </g>
</svg>